<svg width="30" height="30" viewBox="0 0 30 30" fill="none" xmlns="http://www.w3.org/2000/svg">
    <path d="M25.5643 22.5493C25.9548 22.1587 25.9548 21.5256 25.5643 21.1351L19.2003 14.7711C18.8098 14.3806 18.1766 14.3806 17.7861 14.7711C17.3956 15.1616 17.3956 15.7948 17.7861 16.1853L23.4429 21.8422L17.7861 27.499C17.3956 27.8895 17.3956 28.5227 17.7861 28.9132C18.1766 29.3038 18.8098 29.3038 19.2003 28.9132L25.5643 22.5493ZM0 22.8422L24.8571 22.8422V20.8422L0 20.8422L0 22.8422Z" fill="white"/>
    <path d="M8.82122 21.8421C8.82122 23.3177 7.64635 24.5 6.21408 24.5C4.7818 24.5 3.60693 23.3177 3.60693 21.8421C3.60693 20.3665 4.7818 19.1842 6.21408 19.1842C7.64635 19.1842 8.82122 20.3665 8.82122 21.8421Z" fill="white" stroke="#1E1E1E"/>
    <path d="M19.1786 21.8421C19.1786 23.3177 18.0038 24.5 16.5715 24.5C15.1392 24.5 13.9644 23.3177 13.9644 21.8421C13.9644 20.3665 15.1392 19.1842 16.5715 19.1842C18.0038 19.1842 19.1786 20.3665 19.1786 21.8421Z" fill="white" stroke="#1E1E1E"/>
    <path d="M29.7073 8.86494C30.0978 8.47442 30.0978 7.84125 29.7073 7.45073L23.3434 1.08677C22.9528 0.696245 22.3197 0.696245 21.9291 1.08677C21.5386 1.47729 21.5386 2.11046 21.9291 2.50098L27.586 8.15784L21.9291 13.8147C21.5386 14.2052 21.5386 14.8384 21.9291 15.2289C22.3197 15.6194 22.9528 15.6194 23.3434 15.2289L29.7073 8.86494ZM4.14307 9.15784L29.0002 9.15784V7.15784L4.14307 7.15784V9.15784Z" fill="white"/>
    <path d="M12.9643 8.15789C12.9643 9.63348 11.7894 10.8158 10.3571 10.8158C8.92486 10.8158 7.75 9.63348 7.75 8.15789C7.75 6.68231 8.92486 5.5 10.3571 5.5C11.7894 5.5 12.9643 6.68231 12.9643 8.15789Z" fill="white" stroke="#1E1E1E"/>
    <path d="M23.3212 8.15789C23.3212 9.63348 22.1464 10.8158 20.7141 10.8158C19.2818 10.8158 18.1069 9.63348 18.1069 8.15789C18.1069 6.68231 19.2818 5.5 20.7141 5.5C22.1464 5.5 23.3212 6.68231 23.3212 8.15789Z" fill="white" stroke="#1E1E1E"/>
</svg>