<svg width="31" height="35" viewBox="0 0 31 35" fill="none" xmlns="http://www.w3.org/2000/svg">
    <path d="M9.50369 16.6164C9.26532 17.7065 8.29289 18.5252 7.13237 18.5252C6.82297 18.5252 6.57213 18.776 6.57213 19.0855C6.57213 19.395 6.82297 19.6457 7.13237 19.6457C8.90826 19.6457 10.3834 18.3342 10.6407 16.6289C11.728 16.5114 12.7317 16.0269 13.5087 15.2338C13.7253 15.0127 13.7216 14.658 13.5006 14.4415C13.2796 14.2251 12.9249 14.2286 12.7083 14.4496C12.0212 15.151 11.1021 15.5373 10.1203 15.5373C8.12266 15.5373 6.49743 13.9121 6.49743 11.9144C6.49743 11.6049 6.2466 11.3541 5.93719 11.3541C5.62779 11.3541 5.37695 11.6049 5.37695 11.9144C5.37695 14.3208 7.17861 16.313 9.50369 16.6164Z" fill="#4F60FF"/>
    <path d="M11.8757 21.4759C11.8757 21.1664 11.6249 20.9156 11.3155 20.9156C8.7 20.9156 6.57213 23.0435 6.57213 25.659C6.57213 25.686 6.5731 25.7132 6.57355 25.7403C6.36522 25.7122 6.15307 25.6964 5.93719 25.6964C5.62779 25.6964 5.37695 25.9471 5.37695 26.2566C5.37695 26.5661 5.62779 26.8168 5.93719 26.8168C7.93486 26.8168 9.56009 28.4421 9.56009 30.4397C9.56009 30.7492 9.81092 31 10.1203 31C10.4297 31 10.6806 30.7492 10.6806 30.4397C10.6806 28.4519 9.45088 26.7468 7.71271 26.0424C7.69941 25.9155 7.69262 25.7871 7.69262 25.659C7.69262 23.6613 9.31784 22.0361 11.3155 22.0361C11.6249 22.0361 11.8757 21.7854 11.8757 21.4759Z" fill="#4F60FF"/>
    <path d="M31 16.6952C31 15.4197 30.4906 14.211 29.5901 13.3221C29.7327 12.8658 29.8048 12.3939 29.8048 11.9145C29.8048 9.60821 28.1501 7.6821 25.9657 7.25856C26.1327 6.84241 26.2193 6.39631 26.2193 5.93856C26.2193 4.47767 25.3316 3.22049 24.0675 2.67713C21.9614 0.999694 19.6579 0 17.8904 0C16.9078 0 16.0366 0.483152 15.5 1.22387C14.9634 0.483152 14.0922 0 13.1096 0C11.3421 0 9.03863 0.999694 6.9325 2.67713C5.66837 3.22049 4.78072 4.47767 4.78072 5.93856C4.78072 6.39631 4.8673 6.84241 5.03425 7.25856C2.84991 7.6821 1.19518 9.60821 1.19518 11.9145C1.19518 12.3939 1.26727 12.8657 1.40994 13.3221C0.509446 14.211 0 15.4197 0 16.6952C0 17.6923 0.309925 18.618 0.837598 19.3825C0.289234 20.1752 0 21.0999 0 22.0735C0 23.7981 0.940234 25.3783 2.42891 26.2115C2.40328 26.4246 2.39036 26.6395 2.39036 26.8542C2.39036 29.1806 3.90787 31.2375 6.10961 31.9384C7.06733 33.5775 8.81184 34.5855 10.7193 34.5855C12.8105 34.5855 14.6237 33.3768 15.5 31.6219C16.3763 33.3768 18.1895 34.5855 20.2807 34.5855C22.1882 34.5855 23.9327 33.5775 24.8904 31.9384C27.0921 31.2374 28.6096 29.1806 28.6096 26.8542C28.6096 26.6395 28.5967 26.4246 28.5711 26.2115C30.0598 25.3783 31 23.7981 31 22.0735C31 21.0999 30.7108 20.1752 30.1624 19.3825C30.6901 18.618 31 17.6923 31 16.6952ZM10.7193 33.4651C9.14844 33.4651 7.71706 32.599 6.98367 31.205C6.91098 31.0669 6.78414 30.9653 6.63348 30.9248C4.79492 30.43 3.51084 28.7561 3.51084 26.8542C3.51084 26.5696 3.53953 26.2846 3.59607 26.0068C3.64851 25.7494 3.51488 25.4899 3.27472 25.3831C1.96607 24.8013 1.12048 23.5022 1.12048 22.0735C1.12048 21.4237 1.289 20.8026 1.61058 20.2524C2.44691 20.9898 3.54341 21.4386 4.74337 21.4386C5.05278 21.4386 5.30361 21.1878 5.30361 20.8783C5.30361 20.5688 5.05278 20.3181 4.74337 20.3181C2.7457 20.3181 1.12048 18.6929 1.12048 16.6952C1.12048 15.6198 1.59497 14.6063 2.42233 13.9148C2.60908 13.7587 2.67369 13.4999 2.58219 13.2744C2.4053 12.8384 2.31566 12.3809 2.31566 11.9145C2.31566 9.91679 3.94088 8.29157 5.93855 8.29157C7.93622 8.29157 9.56145 9.91679 9.56145 11.9145C9.56145 12.2239 9.81228 12.4747 10.1217 12.4747C10.4311 12.4747 10.6819 12.2239 10.6819 11.9145C10.6819 9.40144 8.7172 7.33968 6.24325 7.18192C6.01901 6.80708 5.90121 6.38085 5.90121 5.93856C5.90121 4.93991 6.50746 4.08042 7.37113 3.70812C7.40452 3.69819 7.43724 3.68519 7.46883 3.66876C7.73641 3.56702 8.02616 3.51084 8.32892 3.51084C9.26691 3.51084 10.1043 4.0353 10.5143 4.8797C10.6495 5.1581 10.9848 5.27418 11.263 5.1389C11.5413 5.00377 11.6574 4.6686 11.5222 4.39027C11.0542 3.42643 10.1683 2.73368 9.14814 2.48829C10.578 1.61581 11.9857 1.12048 13.1096 1.12048C14.1187 1.12048 14.9398 1.94142 14.9398 2.9506V10.2002C14.4364 9.80086 13.8006 9.56145 13.1096 9.56145C12.8002 9.56145 12.5494 9.81221 12.5494 10.1217C12.5494 10.4312 12.8002 10.6819 13.1096 10.6819C14.1187 10.6819 14.9398 11.5029 14.9398 12.512V25.9787C14.2432 25.08 13.2612 24.4017 12.1061 24.0913C11.8073 24.0113 11.5 24.1882 11.4197 24.487C11.3394 24.7859 11.5165 25.0932 11.8153 25.1734C13.6549 25.6677 14.9398 27.3418 14.9398 29.2446C14.9398 31.5717 13.0464 33.4651 10.7193 33.4651ZM27.7253 25.3832C27.4851 25.49 27.3515 25.7494 27.4039 26.0069C27.4605 26.2846 27.4892 26.5697 27.4892 26.8543C27.4892 28.7562 26.2051 30.4301 24.3665 30.9249C24.2159 30.9654 24.0889 31.0669 24.0163 31.2051C23.2829 32.599 21.8516 33.4651 20.2807 33.4651C17.9536 33.4651 16.0602 31.5717 16.0602 29.2446C16.0602 29.087 16.0529 28.9308 16.0393 28.7761C16.0525 28.7283 16.0602 28.678 16.0602 28.6259V10.1217C16.0602 9.11251 16.8813 8.29157 17.8904 8.29157C18.1998 8.29157 18.4506 8.0408 18.4506 7.73133C18.4506 7.42185 18.1998 7.17109 17.8904 7.17109C17.1994 7.17109 16.5636 7.4105 16.0602 7.80984V2.9506C16.0602 1.94142 16.8813 1.12048 17.8904 1.12048C19.0143 1.12048 20.422 1.61581 21.8519 2.48829C20.8317 2.7336 19.9458 3.42643 19.4778 4.39027C19.3426 4.66868 19.4587 5.00385 19.737 5.1389C20.0153 5.27411 20.3505 5.1581 20.4857 4.8797C20.8957 4.0353 21.7331 3.51084 22.6711 3.51084C22.9738 3.51084 23.2637 3.56702 23.5312 3.66876C23.5627 3.68519 23.5954 3.69811 23.6286 3.70805C24.4925 4.08035 25.0988 4.93983 25.0988 5.93856C25.0988 6.38085 24.981 6.80708 24.7567 7.18192C22.2828 7.33968 20.3181 9.40144 20.3181 11.9145C20.3181 12.2239 20.5689 12.4747 20.8783 12.4747C21.1877 12.4747 21.4386 12.2239 21.4386 11.9145C21.4386 9.91679 23.0638 8.29157 25.0614 8.29157C27.0591 8.29157 28.6843 9.91679 28.6843 11.9145C28.6843 12.3809 28.5947 12.8384 28.4179 13.2744C28.3264 13.4999 28.391 13.7587 28.5777 13.9148C29.405 14.6063 29.8795 15.6198 29.8795 16.6952C29.8795 18.6929 28.2543 20.3181 26.2566 20.3181C25.9472 20.3181 25.6964 20.5688 25.6964 20.8783C25.6964 21.1878 25.9472 21.4386 26.2566 21.4386C27.4566 21.4386 28.5531 20.9898 29.3894 20.2524C29.7111 20.8026 29.8795 21.4237 29.8795 22.0735C29.8795 23.5022 29.0339 24.8013 27.7253 25.3832Z" fill="#4F60FF"/>
    <path d="M25.0608 17.9278C23.9003 17.9278 22.9279 17.109 22.6895 16.0189C25.0146 15.7155 26.8163 13.7234 26.8163 11.3169C26.8163 11.0075 26.5654 10.7567 26.256 10.7567C25.9466 10.7567 25.6958 11.0075 25.6958 11.3169C25.6958 13.3146 24.0705 14.9398 22.0729 14.9398C21.0911 14.9398 20.172 14.5536 19.4849 13.8521C19.2684 13.6312 18.9136 13.6275 18.6926 13.8441C18.4716 14.0606 18.4679 14.4153 18.6845 14.6363C19.4615 15.4294 20.4652 15.9139 21.5525 16.0315C21.8098 17.7368 23.2849 19.0483 25.0608 19.0483C25.3702 19.0483 25.6211 18.7975 25.6211 18.488C25.6211 18.1785 25.3702 17.9278 25.0608 17.9278Z" fill="#4F60FF"/>
    <path d="M23.2686 24.5013C23.0528 24.5013 22.8406 24.5171 22.6323 24.5452C22.6327 24.5181 22.6337 24.4909 22.6337 24.4639C22.6337 21.8484 20.5058 19.7205 17.8903 19.7205C17.5809 19.7205 17.3301 19.9713 17.3301 20.2808C17.3301 20.5902 17.5809 20.841 17.8903 20.841C19.888 20.841 21.5132 22.4662 21.5132 24.4639C21.5132 24.5919 21.5064 24.7204 21.4931 24.8473C19.7549 25.5517 18.5253 27.2568 18.5253 29.2446C18.5253 29.5541 18.7761 29.8049 19.0855 29.8049C19.3949 29.8049 19.6457 29.5541 19.6457 29.2446C19.6457 27.247 21.271 25.6217 23.2686 25.6217C23.578 25.6217 23.8289 25.371 23.8289 25.0615C23.8289 24.752 23.578 24.5013 23.2686 24.5013Z" fill="#4F60FF"/>
</svg>
