<svg width="315" height="150" viewBox="0 0 315 150" fill="none" xmlns="http://www.w3.org/2000/svg">
    <g filter="url(#filter0_d_510_1164)">
        <path d="M108.07 69.08C112.294 69.08 115.601 70.296 117.99 72.728C120.422 75.16 121.638 78.744 121.638 83.48V103H117.094V83.928C117.094 80.4293 116.241 77.7627 114.534 75.928C112.87 74.0933 110.502 73.176 107.43 73.176C103.931 73.176 101.179 74.264 99.174 76.44C97.1687 78.5733 96.166 81.5387 96.166 85.336V103H91.622V83.928C91.622 80.4293 90.7687 77.7627 89.062 75.928C87.398 74.0933 85.0087 73.176 81.894 73.176C78.438 73.176 75.686 74.264 73.638 76.44C71.6327 78.5733 70.63 81.5387 70.63 85.336V103H66.086V69.336H70.438V75.48C71.6327 73.432 73.2967 71.8533 75.43 70.744C77.5633 69.6347 80.0167 69.08 82.79 69.08C85.606 69.08 88.038 69.6773 90.086 70.872C92.1767 72.0667 93.734 73.8373 94.758 76.184C95.9953 73.9653 97.766 72.2373 100.07 71C102.417 69.72 105.083 69.08 108.07 69.08ZM151.305 69.08C154.462 69.08 157.321 69.8053 159.881 71.256C162.441 72.664 164.446 74.6693 165.897 77.272C167.348 79.8747 168.073 82.84 168.073 86.168C168.073 89.5387 167.348 92.5253 165.897 95.128C164.446 97.7307 162.441 99.7573 159.881 101.208C157.364 102.616 154.505 103.32 151.305 103.32C148.574 103.32 146.1 102.765 143.881 101.656C141.705 100.504 139.913 98.84 138.505 96.664V115.416H133.961V69.336H138.313V75.992C139.678 73.7733 141.47 72.0667 143.689 70.872C145.95 69.6773 148.489 69.08 151.305 69.08ZM150.985 99.288C153.332 99.288 155.465 98.7547 157.385 97.688C159.305 96.5787 160.798 95.0213 161.865 93.016C162.974 91.0107 163.529 88.728 163.529 86.168C163.529 83.608 162.974 81.3467 161.865 79.384C160.798 77.3787 159.305 75.8213 157.385 74.712C155.465 73.6027 153.332 73.048 150.985 73.048C148.596 73.048 146.441 73.6027 144.521 74.712C142.644 75.8213 141.15 77.3787 140.041 79.384C138.974 81.3467 138.441 83.608 138.441 86.168C138.441 88.728 138.974 91.0107 140.041 93.016C141.15 95.0213 142.644 96.5787 144.521 97.688C146.441 98.7547 148.596 99.288 150.985 99.288ZM181.688 75.928C182.755 73.6667 184.333 71.96 186.424 70.808C188.557 69.656 191.181 69.08 194.296 69.08V73.496L193.208 73.432C189.667 73.432 186.893 74.52 184.888 76.696C182.883 78.872 181.88 81.9227 181.88 85.848V103H177.336V69.336H181.688V75.928ZM202.524 69.336H207.068V103H202.524V69.336ZM204.828 61.976C203.889 61.976 203.1 61.656 202.46 61.016C201.82 60.376 201.5 59.608 201.5 58.712C201.5 57.8587 201.82 57.112 202.46 56.472C203.1 55.832 203.889 55.512 204.828 55.512C205.766 55.512 206.556 55.832 207.196 56.472C207.836 57.0693 208.156 57.7947 208.156 58.648C208.156 59.5867 207.836 60.376 207.196 61.016C206.556 61.656 205.766 61.976 204.828 61.976ZM236.863 69.08C241.087 69.08 244.436 70.3173 246.911 72.792C249.428 75.224 250.687 78.7867 250.687 83.48V103H246.143V83.928C246.143 80.4293 245.268 77.7627 243.519 75.928C241.77 74.0933 239.274 73.176 236.031 73.176C232.404 73.176 229.524 74.264 227.391 76.44C225.3 78.5733 224.255 81.5387 224.255 85.336V103H219.711V69.336H224.063V75.544C225.3 73.496 227.007 71.9173 229.183 70.808C231.402 69.656 233.962 69.08 236.863 69.08ZM280.752 100.952C279.898 101.72 278.832 102.317 277.552 102.744C276.314 103.128 275.013 103.32 273.648 103.32C270.49 103.32 268.058 102.467 266.352 100.76C264.645 99.0533 263.792 96.6427 263.792 93.528V73.176H257.776V69.336H263.792V61.976H268.336V69.336H278.576V73.176H268.336V93.272C268.336 95.2773 268.826 96.8133 269.808 97.88C270.832 98.904 272.282 99.416 274.16 99.416C275.098 99.416 275.994 99.2667 276.848 98.968C277.744 98.6693 278.512 98.2427 279.152 97.688L280.752 100.952Z" fill="white"/>
    </g>
    <g filter="url(#filter1_d_510_1164)">
        <rect x="41" y="41" width="22" height="22" rx="11" fill="white"/>
    </g>
    <g filter="url(#filter2_d_510_1164)">
        <rect x="49" y="70" width="6" height="34" fill="white"/>
    </g>
    <defs>
        <filter id="filter0_d_510_1164" x="32.0859" y="21.5122" width="282.666" height="127.904" filterUnits="userSpaceOnUse" color-interpolation-filters="sRGB">
            <feFlood flood-opacity="0" result="BackgroundImageFix"/>
            <feColorMatrix in="SourceAlpha" type="matrix" values="0 0 0 0 0 0 0 0 0 0 0 0 0 0 0 0 0 0 127 0" result="hardAlpha"/>
            <feOffset/>
            <feGaussianBlur stdDeviation="17"/>
            <feColorMatrix type="matrix" values="0 0 0 0 0.308333 0 0 0 0 0.3775 0 0 0 0 1 0 0 0 1 0"/>
            <feBlend mode="normal" in2="BackgroundImageFix" result="effect1_dropShadow_510_1164"/>
            <feBlend mode="normal" in="SourceGraphic" in2="effect1_dropShadow_510_1164" result="shape"/>
        </filter>
        <filter id="filter1_d_510_1164" x="0" y="0" width="104" height="104" filterUnits="userSpaceOnUse" color-interpolation-filters="sRGB">
            <feFlood flood-opacity="0" result="BackgroundImageFix"/>
            <feColorMatrix in="SourceAlpha" type="matrix" values="0 0 0 0 0 0 0 0 0 0 0 0 0 0 0 0 0 0 127 0" result="hardAlpha"/>
            <feMorphology radius="10" operator="dilate" in="SourceAlpha" result="effect1_dropShadow_510_1164"/>
            <feOffset/>
            <feGaussianBlur stdDeviation="15.5"/>
            <feComposite in2="hardAlpha" operator="out"/>
            <feColorMatrix type="matrix" values="0 0 0 0 0.308333 0 0 0 0 0.3775 0 0 0 0 1 0 0 0 0.46 0"/>
            <feBlend mode="normal" in2="BackgroundImageFix" result="effect1_dropShadow_510_1164"/>
            <feBlend mode="normal" in="SourceGraphic" in2="effect1_dropShadow_510_1164" result="shape"/>
        </filter>
        <filter id="filter2_d_510_1164" x="45" y="66" width="14" height="42" filterUnits="userSpaceOnUse" color-interpolation-filters="sRGB">
            <feFlood flood-opacity="0" result="BackgroundImageFix"/>
            <feColorMatrix in="SourceAlpha" type="matrix" values="0 0 0 0 0 0 0 0 0 0 0 0 0 0 0 0 0 0 127 0" result="hardAlpha"/>
            <feOffset/>
            <feGaussianBlur stdDeviation="2"/>
            <feComposite in2="hardAlpha" operator="out"/>
            <feColorMatrix type="matrix" values="0 0 0 0 0.308333 0 0 0 0 0.3775 0 0 0 0 1 0 0 0 1 0"/>
            <feBlend mode="normal" in2="BackgroundImageFix" result="effect1_dropShadow_510_1164"/>
            <feBlend mode="normal" in="SourceGraphic" in2="effect1_dropShadow_510_1164" result="shape"/>
        </filter>
    </defs>
</svg>
