<?xml version="1.0" standalone="no"?>
<!DOCTYPE svg PUBLIC "-//W3C//DTD SVG 20010904//EN"
 "http://www.w3.org/TR/2001/REC-SVG-20010904/DTD/svg10.dtd">
<svg version="1.0" xmlns="http://www.w3.org/2000/svg"
 width="312.000000pt" height="312.000000pt" viewBox="0 0 312.000000 312.000000"
 preserveAspectRatio="xMidYMid meet">
<metadata>
Created by potrace 1.14, written by Peter Selinger 2001-2017
</metadata>
<g transform="translate(0.000000,312.000000) scale(0.100000,-0.100000)"
fill="#000000" stroke="none">
<path d="M1459 2806 c-2 -2 -26 -6 -54 -9 -190 -20 -443 -107 -623 -212 -26
-15 -116 -78 -128 -90 -7 -5 -35 -28 -63 -50 -28 -22 -51 -43 -51 -47 0 -5 -7
-8 -15 -8 -8 0 -15 -4 -15 -10 0 -5 -23 -34 -51 -64 -28 -30 -58 -64 -66 -76
-8 -11 -19 -17 -25 -14 -7 4 -8 2 -4 -4 4 -6 -11 -37 -33 -69 -70 -103 -155
-295 -175 -398 -30 -149 -34 -190 -31 -325 4 -194 36 -330 119 -505 135 -287
379 -522 691 -669 61 -28 239 -91 285 -100 14 -2 48 -9 75 -15 99 -20 122 -23
285 -26 314 -7 578 60 840 213 217 127 372 282 517 517 63 101 131 299 150
435 10 67 10 274 1 353 -7 57 -52 234 -67 266 -5 9 -24 50 -42 91 -188 415
-620 721 -1134 805 -43 7 -380 16 -386 11z"/>
</g>
</svg>
