<svg width="44" height="35" viewBox="0 0 44 35" fill="none" xmlns="http://www.w3.org/2000/svg">
    <path d="M3 2.40899C3 1.78299 3.56863 1.3109 4.18394 1.42605L19.1839 4.23307C19.6571 4.32161 20 4.73465 20 5.216V29.591C20 30.217 19.4314 30.6891 18.8161 30.574L3.81606 27.7669C3.34292 27.6784 3 27.2653 3 26.784V2.40899Z" stroke="#4F60FF" stroke-width="2"/>
    <path d="M41 2.40899C41 1.78299 40.4314 1.3109 39.8161 1.42605L24.8161 4.23307C24.3429 4.32161 24 4.73465 24 5.216V29.591C24 30.217 24.5686 30.6891 25.1839 30.574L40.1839 27.7669C40.6571 27.6784 41 27.2653 41 26.784V2.40899Z" stroke="#4F60FF" stroke-width="2"/>
    <path d="M42 4H43V30L24 34H20L1 30V4H2" stroke="#4F60FF"/>
</svg>
