<svg width="78" height="78" viewBox="0 0 78 78" fill="none" xmlns="http://www.w3.org/2000/svg">
    <rect x="6" y="6" width="66" height="66" rx="33" fill="#4F60FF" stroke="#111111" stroke-width="12"/>
    <g clip-path="url(#clip0_1323_667)">
        <path d="M51.833 27.1647C51.7087 27.0398 51.5417 26.9926 51.3793 27.008H27.6241C27.4617 26.9932 27.2953 27.0403 27.1709 27.1647C27.1198 27.2158 27.0829 27.2754 27.0557 27.3385C27.0221 27.4112 27 27.4907 27 27.5758C27 27.7417 27.0733 27.8876 27.1868 27.991L35.5183 39.6548V51.3884C35.5137 51.4747 35.5268 51.561 35.562 51.6417C35.6466 51.8484 35.8488 51.9943 36.0862 51.9943C36.2582 51.9943 36.407 51.9137 36.5115 51.7933L43.3148 45.0054C43.4437 44.8765 43.4891 44.7027 43.4687 44.5352V39.6576L51.833 27.9688C52.0557 27.7468 52.0557 27.3867 51.833 27.1647ZM42.4942 39.0891C42.3755 39.2078 42.3249 39.3646 42.3329 39.5202V44.3773L36.654 50.0431V39.5202C36.662 39.3651 36.6115 39.2078 36.4928 39.0891L28.6747 28.1437H50.327L42.4942 39.0891Z" fill="white"/>
    </g>
    <defs>
        <clipPath id="clip0_1323_667">
            <rect width="25" height="25" fill="white" transform="translate(27 27)"/>
        </clipPath>
    </defs>
</svg>
