<svg width="872" height="150" viewBox="0 0 872 150" fill="none" xmlns="http://www.w3.org/2000/svg">
    <g filter="url(#filter0_d_510_1164)">
        <path d="M665.07 69.08C669.294 69.08 672.601 70.296 674.99 72.728C677.422 75.16 678.638 78.744 678.638 83.48V103H674.094V83.928C674.094 80.4293 673.241 77.7627 671.534 75.928C669.87 74.0933 667.502 73.176 664.43 73.176C660.931 73.176 658.179 74.264 656.174 76.44C654.169 78.5733 653.166 81.5387 653.166 85.336V103H648.622V83.928C648.622 80.4293 647.769 77.7627 646.062 75.928C644.398 74.0933 642.009 73.176 638.894 73.176C635.438 73.176 632.686 74.264 630.638 76.44C628.633 78.5733 627.63 81.5387 627.63 85.336V103H623.086V69.336H627.438V75.48C628.633 73.432 630.297 71.8533 632.43 70.744C634.563 69.6347 637.017 69.08 639.79 69.08C642.606 69.08 645.038 69.6773 647.086 70.872C649.177 72.0667 650.734 73.8373 651.758 76.184C652.995 73.9653 654.766 72.2373 657.07 71C659.417 69.72 662.083 69.08 665.07 69.08ZM708.305 69.08C711.462 69.08 714.321 69.8053 716.881 71.256C719.441 72.664 721.446 74.6693 722.897 77.272C724.348 79.8747 725.073 82.84 725.073 86.168C725.073 89.5387 724.348 92.5253 722.897 95.128C721.446 97.7307 719.441 99.7573 716.881 101.208C714.364 102.616 711.505 103.32 708.305 103.32C705.574 103.32 703.1 102.765 700.881 101.656C698.705 100.504 696.913 98.84 695.505 96.664V115.416H690.961V69.336H695.313V75.992C696.678 73.7733 698.47 72.0667 700.689 70.872C702.95 69.6773 705.489 69.08 708.305 69.08ZM707.985 99.288C710.332 99.288 712.465 98.7547 714.385 97.688C716.305 96.5787 717.798 95.0213 718.865 93.016C719.974 91.0107 720.529 88.728 720.529 86.168C720.529 83.608 719.974 81.3467 718.865 79.384C717.798 77.3787 716.305 75.8213 714.385 74.712C712.465 73.6027 710.332 73.048 707.985 73.048C705.596 73.048 703.441 73.6027 701.521 74.712C699.644 75.8213 698.15 77.3787 697.041 79.384C695.974 81.3467 695.441 83.608 695.441 86.168C695.441 88.728 695.974 91.0107 697.041 93.016C698.15 95.0213 699.644 96.5787 701.521 97.688C703.441 98.7547 705.596 99.288 707.985 99.288ZM738.688 75.928C739.755 73.6667 741.333 71.96 743.424 70.808C745.557 69.656 748.181 69.08 751.296 69.08V73.496L750.208 73.432C746.667 73.432 743.893 74.52 741.888 76.696C739.883 78.872 738.88 81.9227 738.88 85.848V103H734.336V69.336H738.688V75.928ZM759.524 69.336H764.068V103H759.524V69.336ZM761.828 61.976C760.889 61.976 760.1 61.656 759.46 61.016C758.82 60.376 758.5 59.608 758.5 58.712C758.5 57.8587 758.82 57.112 759.46 56.472C760.1 55.832 760.889 55.512 761.828 55.512C762.766 55.512 763.556 55.832 764.196 56.472C764.836 57.0693 765.156 57.7947 765.156 58.648C765.156 59.5867 764.836 60.376 764.196 61.016C763.556 61.656 762.766 61.976 761.828 61.976ZM793.863 69.08C798.087 69.08 801.436 70.3173 803.911 72.792C806.428 75.224 807.687 78.7867 807.687 83.48V103H803.143V83.928C803.143 80.4293 802.268 77.7627 800.519 75.928C798.77 74.0933 796.274 73.176 793.031 73.176C789.404 73.176 786.524 74.264 784.391 76.44C782.3 78.5733 781.255 81.5387 781.255 85.336V103H776.711V69.336H781.063V75.544C782.3 73.496 784.007 71.9173 786.183 70.808C788.402 69.656 790.962 69.08 793.863 69.08ZM837.752 100.952C836.898 101.72 835.832 102.317 834.552 102.744C833.314 103.128 832.013 103.32 830.648 103.32C827.49 103.32 825.058 102.467 823.352 100.76C821.645 99.0533 820.792 96.6427 820.792 93.528V73.176H814.776V69.336H820.792V61.976H825.336V69.336H835.576V73.176H825.336V93.272C825.336 95.2773 825.826 96.8133 826.808 97.88C827.832 98.904 829.282 99.416 831.16 99.416C832.098 99.416 832.994 99.2667 833.848 98.968C834.744 98.6693 835.512 98.2427 836.152 97.688L837.752 100.952Z" fill="white"/>
    </g>
    <g filter="url(#filter1_d_510_1164)">
        <rect x="-70" y="48" width="679" height="4" fill="url(#paint0_linear_510_1164)" shape-rendering="crispEdges"/>
    </g>
    <g filter="url(#filter2_d_510_1164)">
        <rect x="598" y="41" width="22" height="22" rx="11" fill="white"/>
    </g>
    <g filter="url(#filter3_d_510_1164)">
        <rect x="606" y="70" width="6" height="34" fill="white"/>
    </g>
    <defs>
        <filter id="filter0_d_510_1164" x="589.086" y="21.5122" width="282.666" height="127.904" filterUnits="userSpaceOnUse" color-interpolation-filters="sRGB">
            <feFlood flood-opacity="0" result="BackgroundImageFix"/>
            <feColorMatrix in="SourceAlpha" type="matrix" values="0 0 0 0 0 0 0 0 0 0 0 0 0 0 0 0 0 0 127 0" result="hardAlpha"/>
            <feOffset/>
            <feGaussianBlur stdDeviation="17"/>
            <feColorMatrix type="matrix" values="0 0 0 0 0.308333 0 0 0 0 0.3775 0 0 0 0 1 0 0 0 1 0"/>
            <feBlend mode="normal" in2="BackgroundImageFix" result="effect1_dropShadow_510_1164"/>
            <feBlend mode="normal" in="SourceGraphic" in2="effect1_dropShadow_510_1164" result="shape"/>
        </filter>
        <filter id="filter1_d_510_1164" x="-74" y="44" width="687" height="12" filterUnits="userSpaceOnUse" color-interpolation-filters="sRGB">
            <feFlood flood-opacity="0" result="BackgroundImageFix"/>
            <feColorMatrix in="SourceAlpha" type="matrix" values="0 0 0 0 0 0 0 0 0 0 0 0 0 0 0 0 0 0 127 0" result="hardAlpha"/>
            <feOffset/>
            <feGaussianBlur stdDeviation="2"/>
            <feComposite in2="hardAlpha" operator="out"/>
            <feColorMatrix type="matrix" values="0 0 0 0 0.308333 0 0 0 0 0.3775 0 0 0 0 1 0 0 0 1 0"/>
            <feBlend mode="normal" in2="BackgroundImageFix" result="effect1_dropShadow_510_1164"/>
            <feBlend mode="normal" in="SourceGraphic" in2="effect1_dropShadow_510_1164" result="shape"/>
        </filter>
        <filter id="filter2_d_510_1164" x="557" y="0" width="104" height="104" filterUnits="userSpaceOnUse" color-interpolation-filters="sRGB">
            <feFlood flood-opacity="0" result="BackgroundImageFix"/>
            <feColorMatrix in="SourceAlpha" type="matrix" values="0 0 0 0 0 0 0 0 0 0 0 0 0 0 0 0 0 0 127 0" result="hardAlpha"/>
            <feMorphology radius="10" operator="dilate" in="SourceAlpha" result="effect1_dropShadow_510_1164"/>
            <feOffset/>
            <feGaussianBlur stdDeviation="15.5"/>
            <feComposite in2="hardAlpha" operator="out"/>
            <feColorMatrix type="matrix" values="0 0 0 0 0.308333 0 0 0 0 0.3775 0 0 0 0 1 0 0 0 0.46 0"/>
            <feBlend mode="normal" in2="BackgroundImageFix" result="effect1_dropShadow_510_1164"/>
            <feBlend mode="normal" in="SourceGraphic" in2="effect1_dropShadow_510_1164" result="shape"/>
        </filter>
        <filter id="filter3_d_510_1164" x="602" y="66" width="14" height="42" filterUnits="userSpaceOnUse" color-interpolation-filters="sRGB">
            <feFlood flood-opacity="0" result="BackgroundImageFix"/>
            <feColorMatrix in="SourceAlpha" type="matrix" values="0 0 0 0 0 0 0 0 0 0 0 0 0 0 0 0 0 0 127 0" result="hardAlpha"/>
            <feOffset/>
            <feGaussianBlur stdDeviation="2"/>
            <feComposite in2="hardAlpha" operator="out"/>
            <feColorMatrix type="matrix" values="0 0 0 0 0.308333 0 0 0 0 0.3775 0 0 0 0 1 0 0 0 1 0"/>
            <feBlend mode="normal" in2="BackgroundImageFix" result="effect1_dropShadow_510_1164"/>
            <feBlend mode="normal" in="SourceGraphic" in2="effect1_dropShadow_510_1164" result="shape"/>
        </filter>
        <linearGradient id="paint0_linear_510_1164" x1="657" y1="51.9999" x2="-70" y2="50.0008" gradientUnits="userSpaceOnUse">
            <stop stop-color="#4F60FF"/>
            <stop offset="1" stop-color="#4F60FF" stop-opacity="0"/>
        </linearGradient>
    </defs>
</svg>
